<svg width="23" height="22" viewBox="0 0 23 22" fill="none" xmlns="http://www.w3.org/2000/svg">
<g clip-path="url(#clip0_6_31)">
<path d="M11.57 21.28C17.4463 21.28 22.21 16.5163 22.21 10.64C22.21 4.76366 17.4463 -3.05176e-05 11.57 -3.05176e-05C5.69369 -3.05176e-05 0.93 4.76366 0.93 10.64C0.93 16.5163 5.69369 21.28 11.57 21.28Z" fill="white"/>
<path d="M8.44695 5.81879C8.90575 5.81879 9.32454 5.85964 9.70332 5.94051C10.0821 6.02137 10.4056 6.15416 10.6754 6.33887C10.9452 6.52358 11.1546 6.76873 11.3036 7.07516C11.4525 7.38159 11.5266 7.75952 11.5266 8.20981C11.5266 8.69584 11.4159 9.10101 11.1955 9.42532C10.975 9.74963 10.6482 10.0152 10.2166 10.222C10.8107 10.3931 11.2542 10.6928 11.547 11.1201C11.8398 11.5474 11.9862 12.0632 11.9862 12.6667C11.9862 13.1527 11.8918 13.5741 11.7028 13.9299C11.5138 14.2857 11.2593 14.5759 10.9393 14.8006C10.6192 15.0262 10.2549 15.1922 9.84547 15.3003C9.43349 15.4084 9.00874 15.4629 8.58314 15.462H3.9092V5.81879H8.44695ZM8.17712 9.72154C8.55505 9.72154 8.86574 9.63131 9.10918 9.45171C9.35263 9.27125 9.47435 8.97929 9.4735 8.57412C9.4735 8.3494 9.43264 8.16469 9.35178 8.02084C9.27091 7.87699 9.16281 7.76378 9.02747 7.68291C8.89213 7.60205 8.73721 7.54587 8.56186 7.51438C8.38141 7.48288 8.1984 7.46671 8.01454 7.46756H6.03039V9.72324L8.17712 9.72154ZM8.29884 13.8133C8.49887 13.8141 8.69805 13.7937 8.89298 13.7528C9.08195 13.712 9.24878 13.6447 9.39263 13.5502C9.53649 13.4558 9.6514 13.3272 9.73737 13.1655C9.82249 13.0038 9.8659 12.7961 9.8659 12.5441C9.8659 12.0496 9.7263 11.6955 9.44711 11.4844C9.16792 11.2724 8.7985 11.1669 8.3397 11.1669H6.03039V13.8141L8.29884 13.8133ZM14.6539 13.6107C14.9416 13.8899 15.3561 14.0295 15.8967 14.0295C16.284 14.0295 16.6168 13.9324 16.896 13.7392C17.1752 13.546 17.3462 13.3408 17.4092 13.1246H19.0972C18.8273 13.9622 18.4128 14.5606 17.8544 14.9207C17.296 15.2807 16.621 15.4612 15.8286 15.4612C15.2795 15.4612 14.7841 15.3735 14.3432 15.1982C13.9023 15.0228 13.5286 14.7726 13.2222 14.4483C12.9158 14.1239 12.6791 13.7375 12.5131 13.2872C12.3471 12.8369 12.2637 12.3415 12.2637 11.8019C12.2637 11.2801 12.3489 10.7941 12.5199 10.3438C12.691 9.89348 12.9345 9.50448 13.2494 9.17592C13.5644 8.84736 13.9406 8.58859 14.3773 8.39963C14.8139 8.21066 15.2983 8.11618 15.8294 8.11618C16.4235 8.11618 16.9411 8.23109 17.3828 8.46091C17.8238 8.69074 18.1864 8.99887 18.4698 9.38617C18.7533 9.77346 18.9584 10.2144 19.0844 10.7098C19.2104 11.2052 19.2555 11.7227 19.2197 12.2632H14.1823C14.2087 12.882 14.3662 13.3323 14.6539 13.6107ZM16.8219 9.93774C16.5921 9.68579 16.2431 9.55981 15.7749 9.55981C15.4685 9.55981 15.214 9.61173 15.0123 9.71473C14.8097 9.81858 14.6479 9.94626 14.5262 10.0995C14.4045 10.2527 14.3194 10.4144 14.27 10.5855C14.2206 10.7566 14.1908 10.9098 14.1823 11.0443H17.302C17.2109 10.5591 17.0509 10.1897 16.8219 9.93774ZM13.8538 6.30823H17.7514V7.38925H13.8538V6.30823Z" fill="#050505"/>
</g>
<defs>
<clipPath id="clip0_6_31">
<rect width="21.28" height="21.28" fill="white" transform="translate(0.93 -3.05176e-05)"/>
</clipPath>
</defs>
</svg>
