<svg width="22" height="22" viewBox="0 0 22 22" fill="none" xmlns="http://www.w3.org/2000/svg">
<path d="M21.28 10.64C21.2792 8.60675 20.6959 6.61625 19.599 4.90419C18.5021 3.19214 16.9377 1.83022 15.0908 0.979672C13.244 0.129127 11.1921 -0.174426 9.17806 0.104949C7.16405 0.384324 5.27226 1.23493 3.72666 2.55606C2.18106 3.87719 1.04636 5.61353 0.456912 7.5595C-0.132538 9.50548 -0.152061 11.5796 0.400656 13.5363C0.953373 15.4931 2.05518 17.2505 3.57564 18.6004C5.09611 19.9504 6.97155 20.8365 8.97994 21.1537V13.7136H6.27333V10.64H8.97994V8.29431C8.97994 5.6298 10.5678 4.1562 12.9978 4.1562C13.8038 4.16656 14.608 4.23693 15.4036 4.36671V6.98311H14.0383C13.8096 6.95249 13.5769 6.97367 13.3574 7.04509C13.138 7.11651 12.9374 7.23634 12.7705 7.39572C12.6037 7.5551 12.4747 7.74996 12.3933 7.96588C12.3118 8.1818 12.28 8.41327 12.3001 8.64316V10.64H15.2533L14.7841 13.7136H12.3001V21.1537C14.8034 20.7571 17.083 19.4803 18.7291 17.5531C20.3752 15.6259 21.2797 13.1746 21.28 10.64Z" fill="white"/>
</svg>
