<svg width="23" height="22" viewBox="0 0 23 22" fill="none" xmlns="http://www.w3.org/2000/svg">
<g clip-path="url(#clip0_6_40)">
<path d="M11.43 21.28C17.3063 21.28 22.07 16.5163 22.07 10.64C22.07 4.76366 17.3063 -3.05176e-05 11.43 -3.05176e-05C5.55369 -3.05176e-05 0.790001 4.76366 0.790001 10.64C0.790001 16.5163 5.55369 21.28 11.43 21.28Z" fill="white"/>
<path d="M14.7321 6.61614C14.5867 6.61615 14.4446 6.65934 14.3238 6.74024C14.203 6.82114 14.1089 6.9361 14.0536 7.07053C13.9982 7.20497 13.984 7.35282 14.0128 7.49532C14.0417 7.63782 14.1121 7.76856 14.2154 7.87094C14.3186 7.97332 14.4499 8.04273 14.5926 8.07036C14.7354 8.09799 14.8831 8.08259 15.0171 8.02613C15.151 7.96967 15.2652 7.87468 15.3451 7.75322C15.425 7.63176 15.4671 7.4893 15.4659 7.34392C15.4659 7.24784 15.4468 7.15271 15.4099 7.06402C15.3729 6.97533 15.3188 6.89483 15.2506 6.82717C15.1824 6.75951 15.1014 6.70603 15.0124 6.66981C14.9234 6.63359 14.8282 6.61535 14.7321 6.61614Z" fill="#050505"/>
<path d="M11.4841 7.55445C10.876 7.55326 10.2812 7.7325 9.77495 8.0695C9.26872 8.4065 8.87385 8.8861 8.6403 9.4476C8.40675 10.0091 8.34502 10.6273 8.46293 11.2239C8.58085 11.8205 8.87309 12.3687 9.30269 12.7991C9.73229 13.2296 10.2799 13.5229 10.8763 13.642C11.4727 13.761 12.0909 13.7005 12.6529 13.4681C13.2149 13.2356 13.6952 12.8417 14.0332 12.3361C14.3712 11.8306 14.5516 11.2361 14.5516 10.628C14.5516 9.81385 14.2286 9.03301 13.6535 8.45678C13.0785 7.88056 12.2982 7.55604 11.4841 7.55445ZM11.4841 12.5948C11.0934 12.596 10.7112 12.4811 10.3858 12.2648C10.0605 12.0485 9.80669 11.7404 9.65663 11.3797C9.50657 11.019 9.46699 10.6218 9.54292 10.2385C9.61885 9.8553 9.80687 9.50322 10.0831 9.22696C10.3594 8.95069 10.7115 8.76268 11.0947 8.68675C11.478 8.61082 11.8751 8.65039 12.2359 8.80046C12.5966 8.95052 12.9046 9.20431 13.121 9.52966C13.3373 9.85501 13.4521 10.2373 13.4509 10.628C13.4494 11.1491 13.2416 11.6484 12.8731 12.0169C12.5046 12.3855 12.0053 12.5932 11.4841 12.5948Z" fill="#050505"/>
<path d="M13.9201 16.8411H8.93992C7.9466 16.8395 6.99442 16.4442 6.29204 15.7418C5.58965 15.0395 5.19435 14.0873 5.19276 13.094V8.13785C5.19276 7.14348 5.58736 6.18976 6.28991 5.48608C6.99247 4.78239 7.94556 4.38627 8.93992 4.38467H13.9201C14.9144 4.38627 15.8675 4.78239 16.5701 5.48608C17.2726 6.18976 17.6672 7.14348 17.6672 8.13785V13.118C17.6593 14.1072 17.2612 15.0532 16.5595 15.7504C15.8578 16.4476 14.9093 16.8396 13.9201 16.8411ZM8.93992 5.56355C8.25717 5.56355 7.60239 5.83477 7.11962 6.31755C6.63685 6.80032 6.36563 7.4551 6.36563 8.13785V13.118C6.36563 13.8008 6.63685 14.4555 7.11962 14.9383C7.60239 15.4211 8.25717 15.6923 8.93992 15.6923H13.9201C14.6028 15.6923 15.2576 15.4211 15.7404 14.9383C16.2232 14.4555 16.4944 13.8008 16.4944 13.118V8.13785C16.4944 7.4551 16.2232 6.80032 15.7404 6.31755C15.2576 5.83477 14.6028 5.56355 13.9201 5.56355H8.93992Z" fill="#050505"/>
</g>
<defs>
<clipPath id="clip0_6_40">
<rect width="21.28" height="21.28" fill="white" transform="translate(0.790001 -3.05176e-05)"/>
</clipPath>
</defs>
</svg>
