<svg width="23" height="22" viewBox="0 0 23 22" fill="none" xmlns="http://www.w3.org/2000/svg">
<g clip-path="url(#clip0_6_34)">
<path d="M11.5 21.28C5.60959 21.28 0.860001 16.5304 0.860001 10.64C0.860001 4.74955 5.60959 -3.05176e-05 11.5 -3.05176e-05C17.3904 -3.05176e-05 22.14 4.77284 22.14 10.64C22.14 16.5304 17.3904 21.28 11.5 21.28Z" fill="white"/>
<path d="M6.15912 4.62122H5.97539C5.35528 4.62122 4.85 5.12649 4.85 5.7466C4.85 6.36671 5.35528 6.87198 5.97539 6.87198H6.15912C6.77923 6.87198 7.28451 6.36671 7.28451 5.7466C7.28451 5.12649 6.8022 4.62122 6.15912 4.62122Z" fill="#050505"/>
<path d="M7.28451 7.46921H4.85001V16.7019H7.28451V7.46921Z" fill="#050505"/>
<path d="M18.079 9.32945C17.9871 8.93901 17.8264 8.59451 17.5967 8.29594C17.367 7.99737 17.0225 7.74473 16.5861 7.56099C16.1498 7.37726 15.6445 7.26242 15.1163 7.26242C13.899 7.26242 12.8655 7.79066 12.0616 8.82418V7.46912H9.78791V16.7019H12.2224V12.5219C12.2224 11.4884 12.2913 10.7764 12.4062 10.4089C12.521 10.0185 12.7507 9.71989 13.0952 9.49022C13.4397 9.26055 13.8071 9.14572 14.2435 9.14572C14.5651 9.14572 14.8636 9.23758 15.0933 9.39835C15.323 9.55912 15.5067 9.78879 15.5986 10.0874C15.7134 10.3859 15.7593 11.029 15.7593 12.0166V16.7248H18.1938V10.9831C18.2168 10.2481 18.1709 9.69692 18.079 9.32945Z" fill="#050505"/>
</g>
<defs>
<clipPath id="clip0_6_34">
<rect width="21.28" height="21.28" fill="white" transform="translate(0.860001 -3.05176e-05)"/>
</clipPath>
</defs>
</svg>
