<svg width="92" height="24" viewBox="0 0 92 24" fill="none" xmlns="http://www.w3.org/2000/svg">
<path d="M5.5706 0.0289242V1.24803C5.34474 1.22268 5.11761 1.21051 4.89034 1.2116C2.48534 1.2116 1.21482 2.82493 1.21482 5.87698V8.97616H3.44306V10.1192H1.21053V23.4961H0V5.73879C0 3.77622 0.508853 2.22931 1.47085 1.26624C2.31073 0.428507 3.45913 0 4.88606 0C5.13459 0 5.35634 0.00964142 5.5706 0.0289242Z" fill="white"/>
<path d="M63.8422 0.0760574H62.6317V23.5497H63.8422V0.0760574Z" fill="white"/>
<path d="M73.2309 3.15595C73.074 2.96068 72.9575 2.73617 72.8881 2.49546C72.8187 2.25475 72.7979 2.00265 72.8269 1.75383C72.8558 1.50501 72.934 1.26442 73.0567 1.04606C73.1795 0.827709 73.3445 0.635943 73.542 0.481918C73.7396 0.327893 73.9658 0.214684 74.2075 0.148874C74.4492 0.0830641 74.7016 0.065967 74.9499 0.0985773C75.1983 0.131187 75.4377 0.212854 75.6542 0.338828C75.8708 0.464801 76.0601 0.632567 76.2112 0.832369L81.5675 7.68849C81.6082 7.74098 81.6543 7.79561 81.6993 7.84382C81.0433 7.95088 80.4248 8.22117 79.9007 8.62983C79.3765 9.03848 78.9635 9.57237 78.6997 10.1824C78.6657 10.1232 78.6274 10.0667 78.5851 10.0131L73.2309 3.15595Z" fill="white"/>
<path d="M91.5795 20.503C91.7372 20.6979 91.8545 20.9223 91.9246 21.163C91.9947 21.4037 92.0162 21.656 91.9879 21.9051C91.9595 22.1542 91.8819 22.3952 91.7595 22.614C91.6371 22.8328 91.4724 23.0251 91.2749 23.1796C91.0775 23.3341 90.8512 23.4478 90.6094 23.514C90.3676 23.5802 90.115 23.5977 89.8664 23.5653C89.6178 23.533 89.3781 23.4515 89.1613 23.3256C88.9445 23.1996 88.7549 23.0318 88.6036 22.8319L83.2472 15.9758C83.1593 15.8611 83.0566 15.7584 82.9419 15.6705C83.6131 15.5678 84.2467 15.2943 84.7819 14.8764C85.3171 14.4585 85.7359 13.91 85.9982 13.2837C86.0588 13.4124 86.1335 13.5338 86.221 13.6458L91.5795 20.503Z" fill="white"/>
<path d="M81.8363 15.6962C81.738 15.778 81.6489 15.8703 81.5707 15.9715L76.2143 22.8277C75.9055 23.2229 75.4523 23.4792 74.9545 23.5403C74.4566 23.6013 73.9549 23.4622 73.5597 23.1533C73.1645 22.8445 72.9082 22.3913 72.8471 21.8935C72.786 21.3956 72.9252 20.8939 73.234 20.4987L78.5904 13.6426C78.6428 13.5746 78.6904 13.503 78.7329 13.4283C79.0157 14.0383 79.4494 14.5661 79.993 14.9618C80.5366 15.3575 81.1722 15.6081 81.8395 15.6898" fill="white"/>
<path d="M83.0726 7.88024C83.1347 7.82181 83.1924 7.75879 83.2451 7.6917L88.6014 0.835581C88.7541 0.640245 88.9437 0.476887 89.1594 0.354833C89.3752 0.232779 89.6129 0.154419 89.859 0.124228C90.105 0.0940369 90.3546 0.112606 90.5935 0.178874C90.8324 0.245142 91.0559 0.357812 91.2512 0.510451C91.4465 0.66309 91.6099 0.852708 91.732 1.06848C91.854 1.28425 91.9324 1.52195 91.9626 1.76801C91.9927 2.01406 91.9742 2.26365 91.9079 2.50253C91.8416 2.74141 91.729 2.9649 91.5763 3.16023L86.22 10.0164C86.1421 10.1161 86.075 10.2239 86.0197 10.3377C85.7763 9.71237 85.3781 9.15904 84.8625 8.72959C84.3468 8.30014 83.7306 8.00863 83.0715 7.88239" fill="white"/>
<path d="M84.8981 11.83C84.8983 12.3229 84.7523 12.8048 84.4787 13.2147C84.205 13.6246 83.8159 13.9441 83.3606 14.1329C82.9053 14.3216 82.4043 14.3711 81.9209 14.2751C81.4374 14.1791 80.9933 13.9419 80.6448 13.5934C80.2962 13.245 80.0587 12.801 79.9625 12.3176C79.8663 11.8342 79.9156 11.3331 80.1041 10.8778C80.2927 10.4224 80.6121 10.0332 81.0219 9.75933C81.4316 9.48548 81.9134 9.33932 82.4063 9.33932C83.067 9.33932 83.7006 9.6017 84.1679 10.0688C84.6352 10.5358 84.8978 11.1693 84.8981 11.83Z" fill="#FF8500"/>
<path d="M14.0144 8.88403C9.85998 8.88403 6.72974 12.04 6.72974 16.2254V16.279C6.72974 20.4334 9.86213 23.5636 14.0144 23.5636C18.1666 23.5636 21.299 20.4087 21.299 16.2233V16.1761C21.299 12.0218 18.1655 8.89152 14.0144 8.89152M20.1399 16.1986V16.2522C20.1399 19.7874 17.5185 22.4559 14.0433 22.4559C10.5949 22.4559 7.89313 19.7306 7.89313 16.2522V16.1986C7.89313 12.6635 10.5135 9.99493 13.9887 9.99493C17.4381 9.99493 20.1399 12.7202 20.1399 16.1986Z" fill="white"/>
<path d="M55.6685 10.477C54.6261 9.43465 53.1028 8.90652 51.1413 8.90652C49.499 8.90652 48.0014 9.28253 46.2852 10.1256L46.0399 10.2467L46.4877 11.2537L46.7523 11.1262C48.3442 10.3602 49.6897 10.0185 51.1145 10.0185C54.2694 10.0185 55.9352 11.5836 55.9352 14.5446V15.2806C54.3816 14.8013 52.765 14.5569 51.1392 14.5553C47.3051 14.5553 44.8262 16.355 44.8262 19.1382V19.1928C44.8262 22.1752 47.5943 23.5325 50.1664 23.5325C53.0235 23.5325 54.9872 22.1924 55.9352 20.8694V23.5679H57.074V14.5167C57.074 12.7952 56.5876 11.3983 55.6663 10.477M55.9352 16.4461V17.9769C55.9352 20.1141 53.7402 22.4206 50.1932 22.4206C48.2553 22.4206 45.9928 21.5689 45.9928 19.1661V19.1114C45.9928 16.5725 48.6656 15.6684 51.167 15.6684C52.9453 15.6684 54.4622 15.9158 55.9352 16.4461Z" fill="white"/>
<path d="M33.9999 10.0164C35.264 10.0031 36.4988 10.3975 37.5212 11.1412L37.5404 11.1551H39.2738L39.1441 11.0341C38.2004 10.1224 36.6417 8.90866 34.0256 8.90866C30.0737 8.90866 26.8567 12.1846 26.8567 16.2104V16.2618C26.8567 20.2909 30.0619 23.5679 33.9999 23.5679C35.9914 23.5679 37.6733 22.863 39.142 21.4125L39.2673 21.2882H37.5447L37.5255 21.3022C36.5182 22.0625 35.2875 22.4678 34.0256 22.4549C30.7154 22.4549 28.0265 19.6696 28.0265 16.2361V16.1847C28.0265 12.7267 30.6522 10.0185 34.0042 10.0185" fill="white"/>
</svg>
