<svg width="22" height="22" viewBox="0 0 22 22" fill="none" xmlns="http://www.w3.org/2000/svg">
<g clip-path="url(#clip0_6_46)">
<path d="M11.36 21.28C17.2363 21.28 22 16.5163 22 10.64C22 4.76366 17.2363 -3.05176e-05 11.36 -3.05176e-05C5.48369 -3.05176e-05 0.720001 4.76366 0.720001 10.64C0.720001 16.5163 5.48369 21.28 11.36 21.28Z" fill="white"/>
<path d="M17.2424 6.99508C16.8568 7.15651 16.4528 7.26964 16.0394 7.3319C16.2319 7.29581 16.5086 6.95297 16.6409 6.82065C16.8172 6.61019 16.95 6.36693 17.0319 6.1049C17.0387 6.09637 17.0424 6.08576 17.0424 6.07483C17.0424 6.0639 17.0387 6.05329 17.0319 6.04476C17.0214 6.04029 17.0102 6.03798 16.9988 6.03798C16.9874 6.03798 16.9762 6.04029 16.9657 6.04476C16.5283 6.29254 16.0615 6.4845 15.5763 6.61615C15.5619 6.62523 15.5452 6.63005 15.5282 6.63005C15.5112 6.63005 15.4945 6.62523 15.4801 6.61615L15.3598 6.49586C15.1634 6.29934 14.9357 6.13675 14.6861 6.01468C14.3575 5.88451 14.0046 5.82706 13.6516 5.84627C13.3094 5.8708 12.9758 5.96495 12.6712 6.12295C12.366 6.28456 12.0961 6.5054 11.8773 6.77253C11.6581 7.04065 11.5004 7.35355 11.4152 7.6892C11.3299 8.02484 11.3193 8.37509 11.3841 8.71528C11.3841 8.77543 11.3841 8.78144 11.3359 8.77543C9.49844 8.59558 7.79377 7.73789 6.55426 6.36955C6.49411 6.30339 6.46404 6.30339 6.42194 6.36955C6.17052 6.8266 6.07446 7.35297 6.14823 7.86936C6.222 8.38575 6.46161 8.86418 6.83094 9.23254C6.92717 9.32277 7.02341 9.41299 7.12566 9.49118C6.80489 9.46628 6.49218 9.37839 6.20541 9.23254C6.13323 9.17841 6.13323 9.20247 6.13323 9.26262C6.12466 9.35464 6.12466 9.44727 6.13323 9.53929C6.1896 9.9695 6.35902 10.3771 6.62422 10.7205C6.88943 11.0638 7.24094 11.3308 7.64292 11.4941C7.7423 11.5332 7.84495 11.5634 7.94967 11.5843C7.64914 11.636 7.34198 11.636 7.04145 11.5843C6.97529 11.5843 6.95123 11.5843 6.97529 11.6685C7.1306 12.0732 7.38672 12.4314 7.71936 12.7093C8.05199 12.9872 8.4501 13.1755 8.87593 13.2564L9.14058 13.2925C8.77001 13.6237 8.32395 13.8591 7.8414 13.9781C7.21017 14.2055 6.53675 14.2918 5.86858 14.2308C5.76633 14.2308 5.74228 14.2308 5.7122 14.2308C5.68213 14.2308 5.7122 14.2729 5.74228 14.3029C5.88061 14.3932 6.01294 14.4713 6.15127 14.5495C6.5717 14.7722 7.01548 14.9477 7.47451 15.0728C8.65056 15.4265 9.89884 15.4655 11.0947 15.1858C12.2905 14.9061 13.392 14.3175 14.2892 13.4789C14.9351 12.7791 15.4348 11.9574 15.7591 11.0619C16.0834 10.1665 16.2257 9.21532 16.1778 8.26418C16.1778 8.18599 16.262 8.14388 16.3161 8.1078C16.6577 7.85344 16.9632 7.55399 17.2243 7.21762C17.2651 7.16647 17.2864 7.10254 17.2845 7.03718C17.2845 6.965 17.2845 6.97102 17.2424 6.99508Z" fill="#050505"/>
</g>
<defs>
<clipPath id="clip0_6_46">
<rect width="21.28" height="21.28" fill="white" transform="translate(0.720001 -3.05176e-05)"/>
</clipPath>
</defs>
</svg>
